<svg width="0" height="0" class="hidden">
  <symbol fill="none" xmlns="http://www.w3.org/2000/svg" viewBox="0 0 12 6" id="downArrow">
    <path d="M1.33325 1L5.47929 4.55374C5.77888 4.81054 6.22096 4.81054 6.52055 4.55374L10.6666 1" stroke="#ACADB9" stroke-width="1.5" stroke-linecap="round"></path>
  </symbol>
  <symbol fill="none" xmlns="http://www.w3.org/2000/svg" viewBox="0 0 18 21" id="location">
    <path d="M14.6569 14.6569C13.7202 15.5935 11.7616 17.5521 10.4138 18.8999C9.63275 19.681 8.36768 19.6814 7.58663 18.9003C6.26234 17.576 4.34159 15.6553 3.34315 14.6569C0.218951 11.5327 0.218951 6.46734 3.34315 3.34315C6.46734 0.218951 11.5327 0.218951 14.6569 3.34315C17.781 6.46734 17.781 11.5327 14.6569 14.6569Z" stroke="#ACADB9" stroke-width="1.5" stroke-linecap="round" stroke-linejoin="round"></path>
    <path d="M12 9C12 10.6569 10.6569 12 9 12C7.34315 12 6 10.6569 6 9C6 7.34315 7.34315 6 9 6C10.6569 6 12 7.34315 12 9Z" stroke="#ACADB9" stroke-width="1.5" stroke-linecap="round" stroke-linejoin="round"></path>
  </symbol>
  <symbol fill="none" xmlns="http://www.w3.org/2000/svg" viewBox="0 0 15 15" id="search">
    <path d="M10.468 10.468L13.5714 13.5714M12.0924 6.54622C12.0924 9.60931 9.60931 12.0924 6.54622 12.0924C3.48313 12.0924 1 9.60931 1 6.54622C1 3.48313 3.48313 1 6.54622 1C9.60931 1 12.0924 3.48313 12.0924 6.54622Z" stroke="#ACADB9" stroke-width="1.5" stroke-linecap="round"></path>
  </symbol>
  <symbol fill="none" xmlns="http://www.w3.org/2000/svg" viewBox="0 0 22 20" id="star">
    <path d="M9.97183 1.70846C10.4382 0.933481 11.5618 0.933482 12.0282 1.70847L14.3586 5.58087C14.5262 5.85928 14.7995 6.05784 15.116 6.13116L19.5191 7.15091C20.4002 7.35499 20.7474 8.42356 20.1545 9.10661L17.1918 12.5196C16.9788 12.765 16.8744 13.0863 16.9025 13.41L17.2932 17.9127C17.3714 18.8138 16.4625 19.4742 15.6296 19.1214L11.4681 17.3583C11.1689 17.2316 10.8311 17.2316 10.5319 17.3583L6.37038 19.1214C5.53754 19.4742 4.62856 18.8138 4.70677 17.9127L5.09754 13.41C5.12563 13.0863 5.02124 12.765 4.80823 12.5196L1.8455 9.1066C1.25257 8.42356 1.59977 7.35499 2.48095 7.15091L6.88397 6.13116C7.20053 6.05784 7.47383 5.85928 7.64138 5.58087L9.97183 1.70846Z" stroke="#ACADB9" stroke-width="1.5"></path>
  </symbol>
  <symbol fill="none" xmlns="http://www.w3.org/2000/svg" viewBox="0 0 12 6" id="upArrow">
    <path d="M10.6667 5L6.52071 1.44626C6.22112 1.18946 5.77904 1.18946 5.47945 1.44626L1.33341 5" stroke="#ACADB9" stroke-width="1.5" stroke-linecap="round"></path>
  </symbol>
</svg>